<svg xmlns="http://www.w3.org/2000/svg" xmlns:xlink="http://www.w3.org/1999/xlink" preserveAspectRatio="xMidYMid" width="44" height="41" viewBox="0 0 44 41" id="svg-1">
  <defs id="defs-2">
    <style id="style-3">
	.cls-1 { fill-rule: evenodd; }
</style>
  </defs>
  <path d="M40.166,3.883 C35.163,-1.178 27.143,-1.257 22.002,3.573 C16.862,-1.257 8.842,-1.178 3.839,3.883 C-1.152,8.932 -1.238,17.017 3.502,22.219 L3.839,22.636 L22.003,41.010 L40.166,22.636 L40.503,22.219 C45.243,17.017 45.156,8.932 40.166,3.883 ZM37.291,19.223 L36.928,19.660 L22.003,34.758 L7.077,19.660 L6.705,19.213 C3.524,15.722 3.619,10.358 6.929,7.008 C8.567,5.351 10.745,4.438 13.062,4.438 C15.280,4.438 17.400,5.281 19.030,6.811 L22.003,9.606 L24.977,6.811 C26.606,5.281 28.725,4.438 30.942,4.438 C33.259,4.438 35.438,5.351 37.076,7.008 C40.386,10.358 40.480,15.722 37.291,19.223 Z" class="cls-1" fill="#347a1e" fill-opacity="1" id="path-4" type="solidColor"></path>
</svg>