<svg xmlns="http://www.w3.org/2000/svg" xmlns:xlink="http://www.w3.org/1999/xlink" preserveAspectRatio="xMidYMid" width="44.03" height="43" viewBox="0 0 44.03 43" id="svg-1">
  <defs id="defs-2">
    <style id="style-3">
	.cls-1 { fill-rule: evenodd; }
</style>
  </defs>
  <path d="M41.903,26.139 C41.469,26.691 40.977,27.316 40.850,27.711 C40.708,28.155 40.742,28.951 40.775,29.722 C40.837,31.227 40.914,33.096 39.811,34.638 C38.700,36.189 36.915,36.691 35.481,37.093 C34.755,37.298 34.007,37.508 33.648,37.772 C33.304,38.027 32.861,38.709 32.472,39.310 C31.648,40.580 30.624,42.163 28.806,42.762 C28.346,42.915 27.851,42.991 27.340,42.991 C26.119,42.991 24.970,42.557 23.958,42.172 C23.231,41.899 22.483,41.615 22.001,41.615 C21.520,41.615 20.772,41.899 20.045,42.172 C18.607,42.716 16.753,43.277 15.197,42.762 C13.378,42.163 12.355,40.580 11.531,39.310 C11.142,38.709 10.699,38.027 10.353,37.772 C9.996,37.508 9.248,37.298 8.521,37.093 C7.087,36.691 5.303,36.189 4.191,34.636 C3.088,33.096 3.166,31.225 3.228,29.722 C3.260,28.949 3.295,28.152 3.153,27.709 C3.028,27.316 2.536,26.691 2.101,26.141 C1.157,24.947 -0.014,23.459 -0.014,21.490 C-0.014,19.522 1.157,18.035 2.099,16.840 C2.533,16.288 3.026,15.663 3.153,15.268 C3.295,14.825 3.260,14.028 3.228,13.257 C3.166,11.752 3.088,9.883 4.191,8.341 C5.303,6.790 7.087,6.288 8.521,5.887 C9.248,5.681 9.996,5.471 10.355,5.207 C10.699,4.952 11.142,4.270 11.531,3.670 C12.355,2.399 13.378,0.816 15.197,0.217 C16.753,-0.302 18.607,0.261 20.045,0.807 C20.772,1.080 21.520,1.364 22.001,1.364 C22.483,1.364 23.231,1.080 23.958,0.807 C25.394,0.261 27.245,-0.302 28.806,0.217 C30.624,0.816 31.648,2.399 32.472,3.670 C32.861,4.270 33.304,4.952 33.649,5.207 C34.007,5.471 34.755,5.681 35.481,5.887 C36.915,6.288 38.700,6.790 39.811,8.343 C40.914,9.883 40.837,11.754 40.775,13.257 C40.742,14.030 40.708,14.827 40.850,15.270 C40.975,15.663 41.467,16.288 41.901,16.838 C42.845,18.033 44.017,19.520 44.017,21.490 C44.017,23.457 42.845,24.944 41.903,26.139 ZM38.466,19.633 C37.795,18.784 37.036,17.821 36.662,16.650 C36.275,15.443 36.329,14.180 36.374,13.069 C36.404,12.390 36.451,11.252 36.251,10.975 C36.045,10.684 34.998,10.391 34.307,10.197 C33.254,9.900 32.061,9.566 31.059,8.823 C30.064,8.090 29.389,7.048 28.793,6.129 C28.395,5.513 27.795,4.587 27.447,4.471 C26.888,4.447 26.191,4.731 25.493,4.998 C24.454,5.391 23.276,5.836 22.001,5.836 C20.727,5.836 19.548,5.391 18.510,4.998 C17.811,4.733 17.091,4.460 16.663,4.460 C16.207,4.587 15.607,5.513 15.210,6.129 C14.614,7.048 13.939,8.090 12.946,8.823 C11.942,9.566 10.748,9.900 9.695,10.197 C9.005,10.391 7.958,10.684 7.752,10.973 C7.552,11.252 7.599,12.388 7.629,13.067 C7.674,14.178 7.728,15.440 7.341,16.648 C6.967,17.821 6.208,18.784 5.537,19.633 C5.053,20.249 4.389,21.090 4.389,21.490 C4.389,21.889 5.053,22.730 5.537,23.346 C6.208,24.195 6.967,25.158 7.341,26.329 C7.728,27.536 7.674,28.799 7.629,29.910 C7.599,30.590 7.552,31.727 7.752,32.005 C7.958,32.295 9.005,32.588 9.695,32.782 C10.748,33.079 11.942,33.413 12.943,34.156 C13.939,34.889 14.614,35.931 15.210,36.851 C15.607,37.466 16.207,38.392 16.556,38.508 C17.082,38.512 17.811,38.246 18.510,37.982 C19.548,37.588 20.727,37.143 22.001,37.143 C23.276,37.143 24.454,37.588 25.493,37.982 C26.191,38.246 26.912,38.519 27.340,38.519 L27.447,38.508 C27.795,38.392 28.395,37.466 28.793,36.851 C29.389,35.931 30.064,34.889 31.057,34.156 C32.061,33.413 33.254,33.079 34.307,32.782 C34.998,32.588 36.045,32.295 36.251,32.007 C36.451,31.727 36.404,30.592 36.374,29.912 C36.329,28.801 36.275,27.539 36.662,26.331 C37.036,25.158 37.795,24.195 38.466,23.346 C38.949,22.730 39.613,21.889 39.613,21.490 C39.613,21.090 38.949,20.249 38.466,19.633 ZM13.840,23.071 L16.953,19.909 L19.800,22.800 L27.049,15.436 L30.163,18.598 L19.800,29.124 L13.840,23.071 Z" class="cls-1" fill="#347a1e" fill-opacity="1" id="path-4" type="solidColor"></path>
</svg>