<svg xmlns="http://www.w3.org/2000/svg" xmlns:xlink="http://www.w3.org/1999/xlink" preserveAspectRatio="xMidYMid" width="43" height="41" viewBox="0 0 43 41" id="svg-1">
  <defs id="defs-2">
    <style id="style-3">
	.cls-1 { fill-rule: evenodd; }
</style>
  </defs>
  <path d="M40.738,28.978 L40.738,36.446 C40.738,38.960 38.708,41.004 36.212,41.004 L4.532,41.004 C2.036,41.004 0.007,38.960 0.007,36.446 L0.007,4.548 C0.007,2.034 2.036,-0.009 4.532,-0.009 L36.212,-0.009 C38.708,-0.009 40.738,2.034 40.738,4.548 L40.738,12.017 C42.084,12.807 43.000,14.261 43.000,15.940 L43.000,25.054 C43.000,26.733 42.084,28.187 40.738,28.978 ZM36.212,4.548 L4.532,4.548 L4.532,36.446 L36.212,36.446 L36.212,29.611 L24.898,29.611 C22.402,29.611 20.372,27.567 20.372,25.054 L20.372,15.940 C20.372,13.427 22.402,11.383 24.898,11.383 L36.212,11.383 L36.212,4.548 ZM38.475,15.940 L36.212,15.940 L24.898,15.940 L24.898,25.054 L36.212,25.054 L38.478,25.054 L38.475,15.940 ZM29.424,22.775 C28.174,22.775 27.161,21.755 27.161,20.497 C27.161,19.239 28.174,18.219 29.424,18.219 C30.673,18.219 31.687,19.239 31.687,20.497 C31.687,21.755 30.673,22.775 29.424,22.775 Z" class="cls-1" fill="#347a1e" fill-opacity="1" id="path-4" type="solidColor"></path>
</svg>